<svg viewBox="0 0 493.28 459.57" xmlns="http://www.w3.org/2000/svg" xmlns:xlink="http://www.w3.org/1999/xlink" id="Layer_1" overflow="hidden"><defs><linearGradient x1="102.63" y1="-38.78" x2="266.54" y2="246.92" gradientUnits="userSpaceOnUse" id="linear-gradient"><stop offset="0" stop-color="#FF54FF"/><stop offset="0.49" stop-color="#9C00BF"/><stop offset="1" stop-color="#2485C7"/></linearGradient><linearGradient x1="277.38" y1="57.1" x2="303.02" y2="57.1" gradientUnits="userSpaceOnUse" id="linear-gradient1"><stop offset="0" stop-color="#D0258E"/><stop offset="1" stop-color="#B94498"/></linearGradient><linearGradient x1="306.45" y1="85.96" x2="332.09" y2="85.96" gradientUnits="userSpaceOnUse" id="linear-gradient2"><stop offset="0" stop-color="#5590C4"/><stop offset="1" stop-color="#3B74A9"/></linearGradient><linearGradient x1="334.85" y1="89.94" x2="352.53" y2="89.94" xlink:href="#linear-gradient2" id="linear-gradient3"></linearGradient><linearGradient x1="361.38" y1="92.16" x2="379.06" y2="92.16" gradientUnits="userSpaceOnUse" id="linear-gradient4"><stop offset="0" stop-color="#35AFCF"/><stop offset="1" stop-color="#53ADC4"/></linearGradient><linearGradient x1="353.01" y1="71.3" x2="370.7" y2="71.3" gradientUnits="userSpaceOnUse" id="linear-gradient5"><stop offset="0" stop-color="#44A1CA"/><stop offset="1" stop-color="#3FAAC9"/></linearGradient><linearGradient x1="350.51" y1="45.93" x2="368.2" y2="45.93" gradientUnits="userSpaceOnUse" id="linear-gradient6"><stop offset="0" stop-color="#6284BD"/><stop offset="1" stop-color="#6E7BA2"/></linearGradient><linearGradient y1="61.08" x2="324.13" y2="61.08" xlink:href="#linear-gradient2" id="linear-gradient7"></linearGradient><linearGradient x1="324.13" y1="43.4" x2="341.82" y2="43.4" gradientUnits="userSpaceOnUse" id="linear-gradient8"><stop offset="0" stop-color="#97509E"/><stop offset="1" stop-color="#834C9D"/></linearGradient><linearGradient x1="332.57" y1="63.88" x2="350.25" y2="63.88" xlink:href="#linear-gradient5" id="linear-gradient9"></linearGradient><linearGradient x1="334.85" y1="114.36" x2="360.49" y2="114.36" xlink:href="#linear-gradient4" id="linear-gradient10"></linearGradient><linearGradient x1="274.16" y1="10530.1" x2="253.59" y2="10490.2" gradientUnits="userSpaceOnUse" id="linear-gradient11" gradientTransform="matrix(1 0 0 -1 0 10560.7)"><stop offset="0" stop-color="#D91F8D"/><stop offset="1" stop-color="#D9278F"/></linearGradient><linearGradient x1="239.05" y1="10490" x2="278.21" y2="10487.1" gradientUnits="userSpaceOnUse" id="linear-gradient12" gradientTransform="matrix(1 0 0 -1 0 10560.7)"><stop offset="0" stop-color="#994D9D"/><stop offset="1" stop-color="#9656A1"/></linearGradient><linearGradient x1="276.48" y1="10521.3" x2="232.58" y2="10473.3" gradientUnits="userSpaceOnUse" id="linear-gradient13" gradientTransform="matrix(1 0 0 -1 0 10560.7)"><stop offset="0" stop-color="#BA3492"/><stop offset="1" stop-color="#983994"/></linearGradient><linearGradient x1="275.05" y1="10475" x2="337.74" y2="10486.2" xlink:href="#linear-gradient2" id="linear-gradient14" gradientTransform="matrix(1 0 0 -1 0 10560.7)"></linearGradient><linearGradient x1="283.25" y1="10465.3" x2="287.99" y2="10516.2" gradientUnits="userSpaceOnUse" id="linear-gradient15" gradientTransform="matrix(1 0 0 -1 0 10560.7)"><stop offset="0" stop-color="#8C5EA6"/><stop offset="1" stop-color="#7F789C"/></linearGradient><linearGradient x1="214.99" y1="10461" x2="274.59" y2="10452.3" gradientUnits="userSpaceOnUse" id="linear-gradient16" gradientTransform="matrix(1 0 0 -1 0 10560.7)"><stop offset="0" stop-color="#EC1C80"/><stop offset="1" stop-color="#ED2970"/></linearGradient><linearGradient x1="309.88" y1="10430.8" x2="271.63" y2="10459.1" gradientUnits="userSpaceOnUse" id="linear-gradient17" gradientTransform="matrix(1 0 0 -1 0 10560.7)"><stop offset="0" stop-color="#B33793"/><stop offset="1" stop-color="#AC4081"/></linearGradient><linearGradient x1="263.35" y1="10467.9" x2="260.49" y2="10449" gradientUnits="userSpaceOnUse" id="linear-gradient18" gradientTransform="matrix(1 0 0 -1 0 10560.7)"><stop offset="0" stop-color="#DB178C"/><stop offset="1" stop-color="#D2288F"/></linearGradient><linearGradient x1="270.35" y1="10466.4" x2="282.99" y2="10465.5" xlink:href="#linear-gradient12" id="linear-gradient19"></linearGradient><linearGradient x1="281.93" y1="10462" x2="271.41" y2="10469.8" xlink:href="#linear-gradient17" id="linear-gradient20"></linearGradient><linearGradient x1="276.67" y1="10465.9" x2="275.94" y2="10461.1" xlink:href="#linear-gradient18" id="linear-gradient21"></linearGradient><linearGradient x1="323.98" y1="10444.7" x2="327.42" y2="10478.3" gradientUnits="userSpaceOnUse" id="linear-gradient22" gradientTransform="matrix(1 0 0 -1 0 10560.7)"><stop offset="0" stop-color="#4C95CA"/><stop offset="1" stop-color="#508DCA"/></linearGradient><linearGradient x1="322.41" y1="10447.8" x2="284.15" y2="10476" gradientUnits="userSpaceOnUse" id="linear-gradient23" gradientTransform="matrix(1 0 0 -1 0 10560.7)"><stop offset="0" stop-color="#776EB1"/><stop offset="1" stop-color="#8081BE"/></linearGradient><linearGradient x1="285.61" y1="10435.8" x2="255.51" y2="10404" gradientUnits="userSpaceOnUse" id="linear-gradient24" gradientTransform="matrix(1 0 0 -1 0 10560.7)"><stop offset="0" stop-color="#D2228E"/><stop offset="1" stop-color="#B23793"/></linearGradient><linearGradient x1="264.56" y1="10430.4" x2="235.06" y2="10470.9" gradientUnits="userSpaceOnUse" id="linear-gradient25" gradientTransform="matrix(1 0 0 -1 0 10560.7)"><stop offset="0" stop-color="#EC1380"/><stop offset="1" stop-color="#CA2A8F"/></linearGradient><linearGradient x1="323.23" y1="10427.7" x2="298.66" y2="10407.2" gradientUnits="userSpaceOnUse" id="linear-gradient26" gradientTransform="matrix(1 0 0 -1 0 10560.7)"><stop offset="0" stop-color="#8B53A0"/><stop offset="1" stop-color="#754C9D"/></linearGradient><linearGradient x1="304.09" y1="10424.8" x2="287.56" y2="10454.6" gradientUnits="userSpaceOnUse" id="linear-gradient27" gradientTransform="matrix(1 0 0 -1 0 10560.7)"><stop offset="0" stop-color="#9F4499"/><stop offset="1" stop-color="#9459A0"/></linearGradient><linearGradient x1="315.56" y1="10420.2" x2="360.7" y2="10420.1" gradientUnits="userSpaceOnUse" id="linear-gradient28" gradientTransform="matrix(1 0 0 -1 0 10560.7)"><stop offset="0" stop-color="#4891CA"/><stop offset="1" stop-color="#2B80C3"/></linearGradient><linearGradient x1="324.16" y1="10404.5" x2="323.55" y2="10437.8" gradientUnits="userSpaceOnUse" id="linear-gradient29" gradientTransform="matrix(1 0 0 -1 0 10560.7)"><stop offset="0" stop-color="#6679BA"/><stop offset="1" stop-color="#6A80BD"/></linearGradient><linearGradient x1="360.8" y1="10404.4" x2="336.05" y2="10443.6" gradientUnits="userSpaceOnUse" id="linear-gradient30" gradientTransform="matrix(1 0 0 -1 0 10560.7)"><stop offset="0" stop-color="#2CC0D9"/><stop offset="1" stop-color="#47C3D8"/></linearGradient><linearGradient x1="266.59" y1="10376.3" x2="237.53" y2="10409.8" gradientUnits="userSpaceOnUse" id="linear-gradient31" gradientTransform="matrix(1 0 0 -1 0 10560.7)"><stop offset="0" stop-color="#EC0F81"/><stop offset="1" stop-color="#EC116C"/></linearGradient><linearGradient x1="296.45" y1="10414.1" x2="278.87" y2="10378.6" gradientUnits="userSpaceOnUse" id="linear-gradient32" gradientTransform="matrix(1 0 0 -1 0 10560.7)"><stop offset="0" stop-color="#D2228E"/><stop offset="1" stop-color="#CD1A8C"/></linearGradient><linearGradient x1="286.57" y1="10393.6" x2="257.51" y2="10427.1" gradientUnits="userSpaceOnUse" id="linear-gradient33" gradientTransform="matrix(1 0 0 -1 0 10560.7)"><stop offset="0" stop-color="#E70F8A"/><stop offset="1" stop-color="#DC1178"/></linearGradient><linearGradient x1="293.56" y1="10419.8" x2="287.14" y2="10414.5" xlink:href="#linear-gradient26" id="linear-gradient34"></linearGradient><linearGradient x1="290.35" y1="10417.1" x2="288.49" y2="10413.4" xlink:href="#linear-gradient32" id="linear-gradient35"></linearGradient><linearGradient x1="300.36" y1="10405.6" x2="293.57" y2="10413.4" xlink:href="#linear-gradient33" id="linear-gradient36"></linearGradient><linearGradient x1="293.76" y1="10399.1" x2="352.48" y2="10389.6" gradientUnits="userSpaceOnUse" id="linear-gradient37" gradientTransform="matrix(1 0 0 -1 0 10560.7)"><stop offset="0" stop-color="#8552A0"/><stop offset="1" stop-color="#6D67AE"/></linearGradient><linearGradient x1="285.2" y1="10407" x2="310.38" y2="10394.2" gradientUnits="userSpaceOnUse" id="linear-gradient38" gradientTransform="matrix(1 0 0 -1 0 10560.7)"><stop offset="0" stop-color="#AB3C95"/><stop offset="1" stop-color="#8B4B9C"/></linearGradient><linearGradient x1="290.35" y1="10417.1" x2="282.01" y2="10400.3" xlink:href="#linear-gradient32" id="linear-gradient39"></linearGradient><linearGradient x1="300.37" y1="10405.6" x2="288.9" y2="10418.8" xlink:href="#linear-gradient33" id="linear-gradient40"></linearGradient><linearGradient x1="290.35" y1="10417.1" x2="300.42" y2="10412" xlink:href="#linear-gradient38" id="linear-gradient41"></linearGradient><linearGradient x1="319.13" y1="10407.4" x2="311.94" y2="10401.4" xlink:href="#linear-gradient26" id="linear-gradient42"></linearGradient><linearGradient x1="295.17" y1="10407.7" x2="312.44" y2="10404.9" xlink:href="#linear-gradient37" id="linear-gradient43"></linearGradient><linearGradient x1="307.33" y1="10408.5" x2="323.73" y2="10400.2" xlink:href="#linear-gradient38" id="linear-gradient44"></linearGradient><linearGradient x1="349.21" y1="10390" x2="388.33" y2="10398.4" gradientUnits="userSpaceOnUse" id="linear-gradient45" gradientTransform="matrix(1 0 0 -1 0 10560.7)"><stop offset="0" stop-color="#17ADDB"/><stop offset="1" stop-color="#2AA5D2"/></linearGradient><linearGradient x1="315.51" y1="10392.8" x2="360.64" y2="10392.7" gradientUnits="userSpaceOnUse" id="linear-gradient46" gradientTransform="matrix(1 0 0 -1 0 10560.7)"><stop offset="0" stop-color="#5380C0"/><stop offset="1" stop-color="#427CBE"/></linearGradient><linearGradient x1="286.44" y1="10370.5" x2="255.23" y2="10332.4" gradientUnits="userSpaceOnUse" id="linear-gradient47" gradientTransform="matrix(1 0 0 -1 0 10560.7)"><stop offset="0" stop-color="#DC168C"/><stop offset="1" stop-color="#BC228D"/></linearGradient><linearGradient x1="266.91" y1="10356.3" x2="246.04" y2="10398" gradientUnits="userSpaceOnUse" id="linear-gradient48" gradientTransform="matrix(1 0 0 -1 0 10560.7)"><stop offset="0" stop-color="#E3148C"/><stop offset="1" stop-color="#C91780"/></linearGradient><linearGradient x1="272.77" y1="10381.7" x2="262.23" y2="10393.8" xlink:href="#linear-gradient31" id="linear-gradient49"></linearGradient><linearGradient x1="272.77" y1="10381.7" x2="263.99" y2="10371" xlink:href="#linear-gradient47" id="linear-gradient50"></linearGradient><linearGradient x1="281.78" y1="10363.6" x2="274.8" y2="10377.6" xlink:href="#linear-gradient48" id="linear-gradient51"></linearGradient><linearGradient x1="272.77" y1="10381.7" x2="262.09" y2="10394" xlink:href="#linear-gradient33" id="linear-gradient52"></linearGradient><linearGradient x1="272.77" y1="10381.7" x2="270.12" y2="10378.4" xlink:href="#linear-gradient47" id="linear-gradient53"></linearGradient><linearGradient x1="281.78" y1="10363.6" x2="274.56" y2="10378.1" xlink:href="#linear-gradient48" id="linear-gradient54"></linearGradient><linearGradient x1="299.69" y1="10371.2" x2="312.54" y2="10368.5" gradientUnits="userSpaceOnUse" id="linear-gradient55" gradientTransform="matrix(1 0 0 -1 0 10560.7)"><stop offset="0" stop-color="#DB198D"/><stop offset="1" stop-color="#D63F95"/></linearGradient><linearGradient x1="303.93" y1="10361" x2="280.66" y2="10388.4" gradientUnits="userSpaceOnUse" id="linear-gradient56" gradientTransform="matrix(1 0 0 -1 0 10560.7)"><stop offset="0" stop-color="#E50F8C"/><stop offset="1" stop-color="#D02179"/></linearGradient><linearGradient x1="294.54" y1="10394.9" x2="290.22" y2="10386.2" xlink:href="#linear-gradient32" id="linear-gradient57"></linearGradient><linearGradient x1="292.38" y1="10390.6" x2="292.38" y2="10390.6" xlink:href="#linear-gradient55" id="linear-gradient58"></linearGradient><linearGradient x1="296.41" y1="10385.8" x2="288.36" y2="10395.3" xlink:href="#linear-gradient56" id="linear-gradient59"></linearGradient><linearGradient x1="328.65" y1="10342" x2="330.87" y2="10382.2" gradientUnits="userSpaceOnUse" id="linear-gradient60" gradientTransform="matrix(1 0 0 -1 0 10560.7)"><stop offset="0" stop-color="#5871B5"/><stop offset="1" stop-color="#505DA9"/></linearGradient><linearGradient x1="339.2" y1="10398.1" x2="296.98" y2="10368.5" gradientUnits="userSpaceOnUse" id="linear-gradient61" gradientTransform="matrix(1 0 0 -1 0 10560.7)"><stop offset="0" stop-color="#854E9E"/><stop offset="1" stop-color="#8B5CA5"/></linearGradient><linearGradient x1="343.62" y1="10382.3" x2="358.59" y2="10379.9" xlink:href="#linear-gradient37" id="linear-gradient62"></linearGradient><linearGradient x1="350.95" y1="10378.3" x2="351.26" y2="10384" xlink:href="#linear-gradient60" id="linear-gradient63"></linearGradient><linearGradient x1="351.11" y1="10381.1" x2="342.2" y2="10374.9" xlink:href="#linear-gradient61" id="linear-gradient64"></linearGradient><linearGradient x1="346.3" y1="10381.1" x2="355.9" y2="10381.1" xlink:href="#linear-gradient46" id="linear-gradient65"></linearGradient><linearGradient x1="350.85" y1="10376.5" x2="351.36" y2="10385.7" xlink:href="#linear-gradient60" id="linear-gradient66"></linearGradient><linearGradient x1="351.11" y1="10381.1" x2="346.43" y2="10377.8" xlink:href="#linear-gradient61" id="linear-gradient67"></linearGradient><linearGradient x1="352.12" y1="10340.7" x2="354.33" y2="10380.9" gradientUnits="userSpaceOnUse" id="linear-gradient68" gradientTransform="matrix(1 0 0 -1 0 10560.7)"><stop offset="0" stop-color="#08ADDF"/><stop offset="1" stop-color="#2EC1DD"/></linearGradient><linearGradient x1="233.93" y1="10317.4" x2="253.92" y2="10329.8" gradientUnits="userSpaceOnUse" id="linear-gradient69" gradientTransform="matrix(1 0 0 -1 0 10560.7)"><stop offset="0" stop-color="#AC4096"/><stop offset="1" stop-color="#98509E"/></linearGradient><linearGradient x1="257.18" y1="10340.1" x2="316.02" y2="10338.8" gradientUnits="userSpaceOnUse" id="linear-gradient70" gradientTransform="matrix(1 0 0 -1 0 10560.7)"><stop offset="0" stop-color="#97479A"/><stop offset="1" stop-color="#92569C"/></linearGradient><linearGradient x1="289.95" y1="10362.4" x2="250.76" y2="10333.3" gradientUnits="userSpaceOnUse" id="linear-gradient71" gradientTransform="matrix(1 0 0 -1 0 10560.7)"><stop offset="0" stop-color="#C13191"/><stop offset="1" stop-color="#C74397"/></linearGradient><linearGradient x1="300.12" y1="10359.2" x2="286.74" y2="10342.9" xlink:href="#linear-gradient47" id="linear-gradient72"></linearGradient><linearGradient x1="283.89" y1="10354.5" x2="308.17" y2="10354" xlink:href="#linear-gradient70" id="linear-gradient73"></linearGradient><linearGradient x1="296.04" y1="10354.3" x2="277.97" y2="10340.8" xlink:href="#linear-gradient71" id="linear-gradient74"></linearGradient><linearGradient x1="296.04" y1="10354.3" x2="289.09" y2="10362.4" xlink:href="#linear-gradient56" id="linear-gradient75"></linearGradient><linearGradient x1="292.44" y1="10354.4" x2="299.63" y2="10354.2" xlink:href="#linear-gradient70" id="linear-gradient76"></linearGradient><linearGradient x1="296.04" y1="10354.3" x2="292.67" y2="10351.8" xlink:href="#linear-gradient71" id="linear-gradient77"></linearGradient><linearGradient x1="340.47" y1="10316.7" x2="303.45" y2="10344.2" gradientUnits="userSpaceOnUse" id="linear-gradient78" gradientTransform="matrix(1 0 0 -1 0 10560.7)"><stop offset="0" stop-color="#7A57A3"/><stop offset="1" stop-color="#7F4A9C"/></linearGradient><linearGradient x1="293.33" y1="10341.7" x2="306.18" y2="10339" gradientUnits="userSpaceOnUse" id="linear-gradient79" gradientTransform="matrix(1 0 0 -1 0 10560.7)"><stop offset="0" stop-color="#A83C95"/><stop offset="1" stop-color="#9B4097"/></linearGradient><linearGradient x1="306.88" y1="10351.9" x2="310.88" y2="10351.1" xlink:href="#linear-gradient55" id="linear-gradient80"></linearGradient><linearGradient x1="310.64" y1="10350.2" x2="307.12" y2="10352.8" xlink:href="#linear-gradient78" id="linear-gradient81"></linearGradient><linearGradient x1="306.88" y1="10351.9" x2="310.88" y2="10351.1" xlink:href="#linear-gradient79" id="linear-gradient82"></linearGradient><linearGradient x1="349.3" y1="10328.6" x2="312.28" y2="10356.1" gradientUnits="userSpaceOnUse" id="linear-gradient83" gradientTransform="matrix(1 0 0 -1 0 10560.7)"><stop offset="0" stop-color="#6864AC"/><stop offset="1" stop-color="#7A59A2"/></linearGradient><linearGradient x1="261.56" y1="10326" x2="270.47" y2="10280.6" gradientUnits="userSpaceOnUse" id="linear-gradient84" gradientTransform="matrix(1 0 0 -1 0 10560.7)"><stop offset="0" stop-color="#5985C4"/><stop offset="1" stop-color="#3AA2CB"/></linearGradient><linearGradient x1="278.1" y1="10290.4" x2="249.2" y2="10323.5" gradientUnits="userSpaceOnUse" id="linear-gradient85" gradientTransform="matrix(1 0 0 -1 0 10560.7)"><stop offset="0" stop-color="#9356A1"/><stop offset="1" stop-color="#754D9E"/></linearGradient><linearGradient x1="284.93" y1="10317.3" x2="333.66" y2="10318.6" gradientUnits="userSpaceOnUse" id="linear-gradient86" gradientTransform="matrix(1 0 0 -1 0 10560.7)"><stop offset="0" stop-color="#0EB3DF"/><stop offset="1" stop-color="#46A0D8"/></linearGradient><linearGradient x1="308.58" y1="10283.6" x2="279.21" y2="10337.3" gradientUnits="userSpaceOnUse" id="linear-gradient87" gradientTransform="matrix(1 0 0 -1 0 10560.7)"><stop offset="0" stop-color="#716AAF"/><stop offset="1" stop-color="#7B84C0"/></linearGradient><linearGradient x1="315.72" y1="10319.3" x2="345.94" y2="10319.6" gradientUnits="userSpaceOnUse" id="linear-gradient88" gradientTransform="matrix(1 0 0 -1 0 10560.7)"><stop offset="0" stop-color="#3492CF"/><stop offset="1" stop-color="#4C83C3"/></linearGradient><linearGradient x1="310.37" y1="10323.6" x2="320.99" y2="10323.9" xlink:href="#linear-gradient86" id="linear-gradient89"></linearGradient><linearGradient x1="319.29" y1="10317.2" x2="312.07" y2="10330.4" xlink:href="#linear-gradient87" id="linear-gradient90"></linearGradient><linearGradient x1="315.68" y1="10323.8" x2="326.4" y2="10323.9" xlink:href="#linear-gradient88" id="linear-gradient91"></linearGradient><linearGradient x1="346.52" y1="138.31" x2="360.56" y2="138.31" xlink:href="#linear-gradient2" id="linear-gradient92"></linearGradient><linearGradient x1="361.42" y1="124.89" x2="377.38" y2="124.89" xlink:href="#linear-gradient30" id="linear-gradient93" gradientTransform="matrix(0.1485 0.988912 -0.988912 0.1485 438.08 -258.95)"></linearGradient><linearGradient x1="375.53" y1="113.1" x2="394.61" y2="113.1" gradientUnits="userSpaceOnUse" id="linear-gradient94" gradientTransform="matrix(0.485268 0.874366 -0.874366 0.485268 297.08 -278.48)"><stop offset="0" stop-color="#42C2D3"/><stop offset="1" stop-color="#1FBCC4"/></linearGradient><linearGradient x1="373.31" y1="74.32" x2="390.89" y2="74.32" xlink:href="#linear-gradient4" id="linear-gradient95" gradientTransform="matrix(0.297875 0.954605 -0.954605 0.297875 339.23 -312.58)"></linearGradient><linearGradient x1="302.67" y1="37.77" x2="322.44" y2="37.77" gradientUnits="userSpaceOnUse" id="linear-gradient96" gradientTransform="matrix(0.642253 0.766493 -0.766493 0.642253 140.75 -226.05)"><stop offset="0" stop-color="#A2489A"/><stop offset="1" stop-color="#964D9D"/></linearGradient><linearGradient x1="370.22" y1="57.1" x2="380.33" y2="57.1" xlink:href="#linear-gradient5" id="linear-gradient97" gradientTransform="matrix(0.485268 0.874366 -0.874366 0.485268 243.08 -298.73)"></linearGradient><linearGradient x1="383.42" y1="97.75" x2="393.53" y2="97.75" xlink:href="#linear-gradient2" id="linear-gradient98" gradientTransform="matrix(0.485268 0.874366 -0.874366 0.485268 285.42 -289.35)"></linearGradient><linearGradient x1="364.34" y1="108.61" x2="374.45" y2="108.61" xlink:href="#linear-gradient4" id="linear-gradient99" gradientTransform="matrix(0.485268 0.874366 -0.874366 0.485268 285.09 -267.08)"></linearGradient><linearGradient x1="340.41" y1="28.23" x2="350.51" y2="28.23" gradientUnits="userSpaceOnUse" id="linear-gradient100" gradientTransform="matrix(0.485268 0.874366 -0.874366 0.485268 202.49 -287.52)"><stop offset="0" stop-color="#9F4A9B"/><stop offset="1" stop-color="#A83C95"/></linearGradient><linearGradient x1="368.18" y1="33.29" x2="375.79" y2="33.29" gradientUnits="userSpaceOnUse" id="linear-gradient101" gradientTransform="matrix(0.0244322 0.999701 -0.999701 0.0244322 396.17 -339.4)"><stop offset="0" stop-color="#479FC9"/><stop offset="1" stop-color="#639ABB"/></linearGradient><linearGradient x1="386.59" y1="59.25" x2="396.69" y2="59.25" gradientUnits="userSpaceOnUse" id="linear-gradient102" gradientTransform="matrix(0.485268 0.874366 -0.874366 0.485268 253.38 -311.94)"><stop offset="0" stop-color="#49C3D1"/><stop offset="1" stop-color="#4DC4D6"/></linearGradient><linearGradient x1="130.15" y1="385.29" x2="146.25" y2="385.29" xlink:href="#linear-gradient30" id="linear-gradient103"></linearGradient></defs><g><path d="M225.37 85.48C223.46 85.15 221.62 84.56 219.91 83.78 220.96 87.65 221.49 91.71 221.42 95.78 221.29 100.11 215.76 99.32 215.89 95.58 216.22 87.25 213.65 81.61 209.31 74.33 208.39 72.89 207.67 71.31 207.14 69.67 206.35 67.24 205.96 64.82 205.96 62.32 188.27 55.17 173.53 74.98 182.74 91.18 187.61 98 196.09 102.2 208.13 103.64 212.01 104.17 211.62 109.67 207.47 109.15 202.47 108.49 197.41 107.38 192.73 105.48 193.72 106.73 194.57 108.04 195.49 109.35 199.24 115.06 207.27 117.09 213.71 117.74 217.59 118.14 217.39 123.64 213.25 123.25 209.04 122.86 204.96 121.74 201.08 120.1 202.85 125.15 203.18 130.27 200.88 135.51 199.37 138.92 194.24 136.82 195.81 133.28 201.27 120.49 185.48 107.11 177.92 93.93 176.21 90.85 175.16 87.7 174.63 84.62 168.05 85.21 162 88.82 158.38 94.46 154.24 100.95 153.91 109.15 157.53 115.97 160.69 121.94 166.41 126 172.99 127.12 173.12 126.79 173.25 126.46 173.38 126.14 175.49 121.48 180.29 119.58 185.02 118.73 189.23 118.01 190.68 123.32 186.01 124.17 183.25 124.63 179.7 125.61 178.38 128.43 177.52 130.4 177.79 133.09 178.05 135.12 178.58 138.47 179.43 141.68 179.96 145.02 180.09 145.68 180.16 146.33 180.22 146.99 180.88 152.11 180.42 156.76 178.58 160.7 180.49 165.09 184.24 168.64 188.51 170.08 192.13 171.26 190.81 176.64 186.8 175.19 181.93 173.42 177.79 170.08 175.09 165.68 172.98 167.85 170.22 169.62 166.74 170.86 162.6 172.3 160.75 167.12 164.9 165.68 173.32 162.67 175.82 156.04 174.77 147.71 174.7 147.12 174.64 146.53 174.51 145.87 173.98 142.59 173.13 139.25 172.6 135.97 172.47 134.86 172.34 133.74 172.27 132.56 167.14 131.77 162.4 129.48 158.59 126.13 146.49 133.15 139.71 145.28 139.05 159.31 138.39 172.16 143.26 186.53 153.52 194.86 162 201.74 177.07 204.89 186.08 197.28 190.75 193.35 190.09 188.49 192.53 183.31 194.77 178.52 199.11 175.05 204.3 174.19 208.64 173.47 209.5 178.84 205.15 179.63 201.6 180.22 198.84 182.65 197.32 186.06 206.99 179.63 219.09 181.27 228.57 188.81 231.46 191.17 228.5 195.83 225.08 193.07 220.8 189.66 215.94 187.69 211.13 187.56 212.05 188.28 212.91 189.13 213.63 190.12 218.63 196.55 217.05 204.68 210.6 208.88 207.05 211.24 204.74 206.19 207.7 204.29 216.12 198.85 206.25 185.53 197.83 192.68 197.04 193.34 196.32 194.13 195.59 194.98 194.08 196.88 192.5 198.85 190.52 200.68 185.32 205.53 178.35 207.43 171.31 207.17 169.01 209.99 168.15 213.79 169.14 217.33 170.26 221.26 173.35 224.35 177.3 225.4 187.23 227.96 193.61 217.33 195.19 208.68 195.98 204.75 201.37 205.66 200.65 209.66 200.19 212.35 199.33 215.1 198.15 217.66 201.37 218.32 204.6 220.15 207.03 223.36 209.2 226.25 205.12 229.92 202.62 226.71 200.78 224.35 198.21 222.84 195.12 222.84 192.42 226.58 188.94 229.46 184.73 230.64 184.34 232.02 184.2 233.66 184.4 235.1 187.16 251.3 206.5 255.56 218.8 246.51 218.21 253 220.44 258.9 225.84 260.15 229.26 261 232.68 260.02 235.12 257.53L235.12 44.89C229.2 43.05 222.69 44.3 217.82 48.36 212.16 53.15 209.99 60.89 212.36 67.9 214.46 74.26 219.79 78.85 226.24 80.03 230.25 80.82 229.33 86.19 225.32 85.47L225.32 85.47ZM229.12 126.27C227.67 134.2 224.19 140.3 217.41 144.3 207.67 150.01 209.84 162.79 218.79 166.73 222.01 168.17 220.11 172.83 216.82 171.32 207.81 167.32 203.86 156.56 207.22 148.24 202.75 149.49 197.42 150.67 193.74 153.23 191.04 155.13 189.4 157.62 188.54 160.84 187.29 164.97 182.62 163.14 183.67 159.47 184.92 155.14 187.22 151.66 190.91 149.11 195.78 145.7 201.96 144.65 207.55 142.94 209.52 142.35 211.43 141.69 213.27 140.84 219.91 137.69 222.87 132.45 224.12 125.36 224.91 121.1 229.78 122.47 229.12 126.28L229.12 126.28ZM229.45 236.31C226.16 235.2 223.2 233.29 220.83 230.8 220.3 235.52 218.72 239.92 215.5 243.65 212.93 246.6 209.18 243.26 211.75 240.3 215.7 235.78 216.88 229.22 215.24 220.69 213.2 212.1 216.56 203.11 223.73 198 226.89 195.77 230.18 199.51 226.69 202.06 221.16 205.99 218.53 212.88 220.11 219.5 221.43 225.14 225.57 229.66 231.1 231.57 235.18 232.95 233.14 237.54 229.46 236.29L229.46 236.29ZM240.7 252.84 240.7 259.2C237.74 264.38 231.82 267.14 225.96 266.09 220.04 264.98 215.5 260.32 214.58 254.48 200.24 260.78 181.03 251.33 178.99 235.86 178.79 234.35 178.79 232.71 178.99 231.27 178 231.2 177.02 231.01 175.96 230.74 170.11 229.23 165.5 224.71 163.86 218.87 162.74 214.61 163.27 210.15 165.31 206.34 159.65 205.1 154.26 202.54 150.05 199.13 128.6 181.75 125.78 139.85 154.79 122.01 154 120.89 153.28 119.78 152.68 118.53 148.14 110 148.54 99.64 153.73 91.51 158.34 84.3 166.03 79.77 174.39 79.11 175.38 63.7 189.98 50.98 206.56 56.68 207.74 51.89 210.38 47.5 214.32 44.15 221.69 37.92 232.15 36.74 240.7 41.2L240.7 252.82 240.7 252.82Z" fill="url(#linear-gradient)" fill-rule="evenodd"/><g><rect x="277.38" y="44.28" width="25.64" height="25.64" fill="url(#linear-gradient1)"/><rect x="306.45" y="73.14" width="25.64" height="25.64" fill="url(#linear-gradient2)"/><rect x="334.85" y="81.1" width="17.68" height="17.68" fill="url(#linear-gradient3)"/><rect x="361.38" y="83.32" width="17.68" height="17.68" fill="url(#linear-gradient4)"/><rect x="353.01" y="62.46" width="17.68" height="17.68" fill="url(#linear-gradient5)"/><rect x="350.51" y="37.09" width="17.68" height="17.68" fill="url(#linear-gradient6)"/><rect x="306.45" y="52.24" width="17.68" height="17.68" fill="url(#linear-gradient7)"/><rect x="324.13" y="34.55" width="17.68" height="17.68" fill="url(#linear-gradient8)"/><rect x="332.57" y="55.04" width="17.68" height="17.68" fill="url(#linear-gradient9)"/><rect x="334.85" y="101.54" width="25.64" height="25.64" fill="url(#linear-gradient10)"/><path d="M256.11 51.81 273.04 46.5C266.56 44.64 260.45 47.54 256.11 51.81Z" fill="url(#linear-gradient11)"/><path d="M249.72 92.81 276.67 94.77 276.67 94.77 276.67 94.77 278.67 73.27 274.03 73.27 274.03 51.95 249.72 78.55 249.72 92.81Z" fill="url(#linear-gradient12)"/><path d="M249.72 64.24 249.72 78.55 274.04 51.94 274.04 46.82C273.71 46.7 273.38 46.6 273.05 46.5L256.12 51.81C252.2 55.67 249.72 60.64 249.72 64.24Z" fill="url(#linear-gradient13)"/><path d="M303.69 89.96 303.69 73.27 291.94 73.27 276.67 94.77 303.69 89.96Z" fill="url(#linear-gradient14)"/><path d="M291.94 73.27 278.67 73.27 276.67 94.77 291.94 73.27Z" fill="url(#linear-gradient15)"/><path d="M249.72 99.26 249.72 110.22 273.81 113.74 249.72 99.26Z" fill="url(#linear-gradient16)"/><path d="M314.92 123.02 276.67 94.77 276.67 94.77 273.81 113.74 314.92 123.02Z" fill="url(#linear-gradient17)"/><path d="M276.67 94.77 249.72 92.81 249.72 99.26 273.81 113.74 276.67 94.77Z" fill="url(#linear-gradient18)"/><path d="M276.67 94.77 276.67 94.77 276.67 94.77 276.67 94.77Z" fill="url(#linear-gradient19)"/><path d="M276.67 94.77 276.67 94.77 276.67 94.77 276.67 94.77Z" fill="url(#linear-gradient20)"/><path d="M276.67 94.77 276.67 94.77 276.67 94.77 276.67 94.77Z" fill="url(#linear-gradient21)"/><path d="M332.09 118.27 332.09 106.43 332.09 104.83 332.09 101.54 328.24 101.54 314.92 123.02 332.09 118.27Z" fill="url(#linear-gradient22)"/><path d="M314.92 123.02 328.24 101.54 303.69 101.54 303.69 89.96 276.67 94.77 314.92 123.02Z" fill="url(#linear-gradient23)"/><path d="M273.81 113.74 273.81 113.74 249.72 139.15 249.72 145.24 290.35 143.54 273.81 113.74Z" fill="url(#linear-gradient24)"/><path d="M273.81 113.74 249.72 110.22 249.72 139.15 273.81 113.74 273.81 113.74Z" fill="url(#linear-gradient25)"/><path d="M290.35 143.54 290.35 143.54 290.35 143.54 315.53 156.3 315.53 156.3 315.53 156.3 314.92 123.02 314.92 123.03 290.35 143.54Z" fill="url(#linear-gradient26)"/><path d="M290.35 143.54 314.92 123.03 314.92 123.02 273.81 113.74 290.35 143.54Z" fill="url(#linear-gradient27)"/><path d="M358.79 156.39C357.72 153.08 356.22 150.07 354.61 147.52L344.34 147.52 344.34 130.52 343.98 129.94 332.11 129.94 332.11 124.55 315.55 156.3 358.8 156.39Z" fill="url(#linear-gradient28)"/><path d="M315.53 156.3 332.09 124.55 332.09 118.27 314.92 123.02 315.53 156.3Z" fill="url(#linear-gradient29)"/><path d="M344.33 129.94 343.96 129.94 344.33 130.52 344.33 129.94Z" fill="url(#linear-gradient30)"/><path d="M272.77 179.02 249.72 152.42 249.72 177.4 272.77 179.02 272.77 179.02Z" fill="url(#linear-gradient31)"/><path d="M292.38 170.12 292.38 170.12 290.35 143.55 272.77 179.02 292.38 170.12 292.38 170.12Z" fill="url(#linear-gradient32)"/><path d="M272.77 179.02 272.77 179.02 290.35 143.55 290.35 143.54 249.72 145.24 249.72 152.42 272.77 179.02 272.77 179.02Z" fill="url(#linear-gradient33)"/><path d="M290.35 143.54 290.35 143.54 290.35 143.54 290.35 143.54Z" fill="url(#linear-gradient34)"/><path d="M290.35 143.54 290.35 143.54 290.35 143.54 290.35 143.54Z" fill="url(#linear-gradient35)"/><path d="M290.35 143.54 290.35 143.54 290.35 143.54 290.35 143.54Z" fill="url(#linear-gradient36)"/><path d="M292.38 170.12 351.1 179.58 351.1 179.58 315.53 156.3 315.53 156.3 292.38 170.12Z" fill="url(#linear-gradient37)"/><path d="M315.53 156.3 290.35 143.54 290.35 143.55 292.38 170.12 315.53 156.3Z" fill="url(#linear-gradient38)"/><path d="M290.35 143.54 290.35 143.55 290.35 143.54 290.35 143.54Z" fill="url(#linear-gradient39)"/><path d="M290.35 143.54 290.35 143.55 290.35 143.54 290.35 143.54Z" fill="url(#linear-gradient40)"/><path d="M290.35 143.54 290.35 143.55 290.35 143.54 290.35 143.54Z" fill="url(#linear-gradient41)"/><path d="M315.53 156.3 315.53 156.3 315.53 156.3 315.53 156.3Z" fill="url(#linear-gradient42)"/><path d="M315.53 156.3 315.53 156.3 315.53 156.3 315.53 156.3Z" fill="url(#linear-gradient43)"/><path d="M315.53 156.3 315.53 156.3 315.53 156.3 315.53 156.3Z" fill="url(#linear-gradient44)"/><path d="M357.66 178.18C360.8 171.58 360.91 164.97 359.54 159.11L351.1 179.57 357.66 178.17Z" fill="url(#linear-gradient45)"/><path d="M351.1 179.58 351.1 179.58C351.1 179.58 351.1 179.58 351.1 179.58L359.54 159.12C359.32 158.19 359.07 157.28 358.78 156.39L315.53 156.3 351.1 179.57Z" fill="url(#linear-gradient46)"/><path d="M296.03 206.41 272.77 179.02 272.77 179.02 249.72 207.14 249.72 215.49 296.03 206.41 296.03 206.41Z" fill="url(#linear-gradient47)"/><path d="M249.72 177.4 249.72 207.14 272.77 179.02 249.72 177.4Z" fill="url(#linear-gradient48)"/><path d="M272.77 179.02 272.77 179.02 272.77 179.02 272.77 179.02Z" fill="url(#linear-gradient49)"/><path d="M272.77 179.02 272.77 179.02 272.77 179.02 272.77 179.02Z" fill="url(#linear-gradient50)"/><path d="M272.77 179.02 272.77 179.02 272.77 179.02 272.77 179.02Z" fill="url(#linear-gradient51)"/><path d="M272.77 179.02 272.77 179.02 272.77 179.02 272.77 179.02Z" fill="url(#linear-gradient52)"/><path d="M272.77 179.02 272.77 179.02 272.77 179.02 272.77 179.02Z" fill="url(#linear-gradient53)"/><path d="M272.77 179.02 272.77 179.02 272.77 179.02 272.77 179.02Z" fill="url(#linear-gradient54)"/><path d="M292.38 170.12 296.04 206.41 308.88 209.18 308.88 209.18 308.88 209.18 292.38 170.12 292.38 170.12Z" fill="url(#linear-gradient55)"/><path d="M296.04 206.41 292.38 170.12 272.77 179.02 296.03 206.41 296.03 206.41 296.04 206.41Z" fill="url(#linear-gradient56)"/><path d="M292.38 170.12 292.38 170.12 292.38 170.12 292.38 170.12Z" fill="url(#linear-gradient57)"/><path d="M292.38 170.12 292.38 170.12 292.38 170.12 292.38 170.12Z" fill="url(#linear-gradient58)"/><path d="M292.38 170.12 292.38 170.12 292.38 170.12 292.38 170.12Z" fill="url(#linear-gradient59)"/><path d="M351.1 179.58 308.88 209.18 338.61 217.05C354.75 209.07 346.9 191.14 346.9 191.14 348.27 190.05 349.51 188.94 350.64 187.83L351.1 179.58 351.1 179.58Z" fill="url(#linear-gradient60)"/><path d="M308.88 209.18 351.1 179.58 292.38 170.12 308.88 209.18Z" fill="url(#linear-gradient61)"/><path d="M351.11 179.58 351.1 179.58 351.1 179.58 351.11 179.58Z" fill="url(#linear-gradient62)"/><path d="M351.11 179.58 351.1 179.58 351.1 179.58 351.11 179.58Z" fill="url(#linear-gradient63)"/><path d="M351.11 179.58 351.1 179.58 351.1 179.58 351.11 179.58Z" fill="url(#linear-gradient64)"/><path d="M351.1 179.58 351.1 179.58 351.11 179.58 351.1 179.58Z" fill="url(#linear-gradient65)"/><path d="M351.1 179.58 351.1 179.58 351.11 179.58 351.1 179.58Z" fill="url(#linear-gradient66)"/><path d="M351.1 179.58 351.1 179.58 351.11 179.58 351.1 179.58Z" fill="url(#linear-gradient67)"/><path d="M350.65 187.83C353.84 184.68 356.12 181.43 357.66 178.18L351.1 179.58 350.64 187.83Z" fill="url(#linear-gradient68)"/><path d="M249.72 226.96 249.72 239.99 256.84 235.58 249.72 226.96Z" fill="url(#linear-gradient69)"/><path d="M296.03 206.41 256.84 235.58 315.68 236.91 296.04 206.41 296.03 206.41Z" fill="url(#linear-gradient70)"/><path d="M296.03 206.41 249.72 215.49 249.72 226.96 256.84 235.58 296.03 206.41Z" fill="url(#linear-gradient71)"/><path d="M296.03 206.41 296.03 206.41 296.04 206.41 296.03 206.41Z" fill="url(#linear-gradient72)"/><path d="M296.03 206.41 296.03 206.41 296.04 206.41 296.03 206.41Z" fill="url(#linear-gradient73)"/><path d="M296.03 206.41 296.03 206.41 296.04 206.41 296.03 206.41Z" fill="url(#linear-gradient74)"/><path d="M296.03 206.41 296.03 206.41 296.04 206.41 296.03 206.41Z" fill="url(#linear-gradient75)"/><path d="M296.03 206.41 296.03 206.41 296.04 206.41 296.03 206.41Z" fill="url(#linear-gradient76)"/><path d="M296.03 206.41 296.03 206.41 296.04 206.41 296.03 206.41Z" fill="url(#linear-gradient77)"/><path d="M308.88 209.18 315.68 236.91 330.36 236.79C332.36 233.53 333.04 230.11 333.13 227.18L308.88 209.18 308.88 209.18Z" fill="url(#linear-gradient78)"/><path d="M315.68 236.91 308.88 209.18 296.04 206.41 315.68 236.91Z" fill="url(#linear-gradient79)"/><path d="M308.88 209.18 308.88 209.18 308.88 209.18 308.88 209.18Z" fill="url(#linear-gradient80)"/><path d="M308.88 209.18 308.88 209.18 308.88 209.18 308.88 209.18Z" fill="url(#linear-gradient81)"/><path d="M308.88 209.18 308.88 209.18 308.88 209.18 308.88 209.18Z" fill="url(#linear-gradient82)"/><path d="M333.13 227.18C333.27 222.72 332.05 219.37 332.05 219.37 334.59 218.76 336.76 217.97 338.61 217.05L308.88 209.18 333.13 227.18Z" fill="url(#linear-gradient83)"/><path d="M256.84 235.58 261.65 260.12C264.83 262.01 268.39 263.09 272.11 263.51L256.84 235.58 256.84 235.58Z" fill="url(#linear-gradient84)"/><path d="M256.84 235.58 249.72 240 249.72 241.22C251.57 250.76 255.99 256.74 261.65 260.12L256.84 235.58 256.84 235.58Z" fill="url(#linear-gradient85)"/><path d="M309.22 248.38C313.05 247.75 316.28 246.84 319.01 245.73L315.68 236.9 309.22 248.37Z" fill="url(#linear-gradient86)"/><path d="M315.68 236.91 256.84 235.58 272.11 263.51C286.82 265.18 303.94 256.66 308.92 248.44 309.02 248.42 309.12 248.41 309.22 248.39L315.68 236.92 315.68 236.92Z" fill="url(#linear-gradient87)"/><path d="M315.68 236.91 315.68 236.91C315.68 236.91 319.01 245.74 319.01 245.74 324.77 243.4 328.28 240.18 330.35 236.79L315.67 236.91 315.67 236.91Z" fill="url(#linear-gradient88)"/><path d="M315.68 236.91 315.68 236.91 315.68 236.91 315.68 236.91Z" fill="url(#linear-gradient89)"/><path d="M315.68 236.91 315.68 236.91 315.68 236.91 315.68 236.91Z" fill="url(#linear-gradient90)"/><path d="M315.68 236.91 315.68 236.91 315.68 236.91 315.68 236.91Z" fill="url(#linear-gradient91)"/><rect x="346.52" y="131.29" width="14.03" height="14.03" fill="url(#linear-gradient92)"/><rect x="362.38" y="117.88" width="14.03" height="14.03" fill="url(#linear-gradient93)" transform="matrix(0.1485 -0.988912 0.988912 0.1485 191.06 471.66)"/><rect x="378.06" y="106.08" width="14.03" height="14.03" fill="url(#linear-gradient94)" transform="matrix(0.485268 -0.874366 0.874366 0.485268 99.31 394.9)"/><rect x="375.09" y="67.3" width="14.03" height="14.03" fill="url(#linear-gradient95)" transform="matrix(0.297875 -0.954605 0.954605 0.297875 197.34 416.94)"/><rect x="305.54" y="30.76" width="14.03" height="14.03" fill="url(#linear-gradient96)" transform="matrix(0.642253 -0.766493 0.766493 0.642253 82.85 253.07)"/><rect x="371.56" y="53.39" width="7.43" height="7.43" fill="url(#linear-gradient97)" transform="matrix(0.485268 -0.874366 0.874366 0.485268 143.22 357.51)"/><rect x="384.76" y="94.04" width="7.43" height="7.43" fill="url(#linear-gradient98)" transform="matrix(0.485268 -0.874366 0.874366 0.485268 114.48 389.98)"/><rect x="365.68" y="104.9" width="7.43" height="7.43" fill="url(#linear-gradient99)" transform="matrix(0.485268 -0.874366 0.874366 0.485268 95.16 378.89)"/><rect x="341.74" y="24.51" width="7.43" height="7.43" fill="url(#linear-gradient100)" transform="matrix(0.485268 -0.874366 0.874366 0.485268 153.12 316.58)"/><rect x="368.27" y="29.57" width="7.43" height="7.43" fill="url(#linear-gradient101)" transform="matrix(0.0244322 -0.999701 0.999701 0.0244322 329.62 404.35)"/><rect x="387.92" y="55.53" width="7.43" height="7.43" fill="url(#linear-gradient102)" transform="matrix(0.485268 -0.874366 0.874366 0.485268 149.78 372.92)"/></g></g><g><path d="M45.65 428.51C44.65 428.05 43.86 427.41 43.29 426.59 42.72 425.77 42.41 424.85 42.37 423.84L44.49 423.84C44.59 424.81 45.02 425.67 45.78 426.4 46.54 427.14 47.66 427.5 49.13 427.5 50.49 427.5 51.56 427.15 52.35 426.45 53.14 425.75 53.54 424.87 53.54 423.8 53.54 422.94 53.32 422.25 52.88 421.72 52.44 421.19 51.9 420.8 51.25 420.55 50.6 420.29 49.7 420.01 48.56 419.7 47.22 419.34 46.16 418.98 45.38 418.64 44.6 418.3 43.93 417.76 43.37 417.04 42.82 416.31 42.54 415.33 42.54 414.09 42.54 413.06 42.81 412.14 43.34 411.32 43.87 410.51 44.63 409.87 45.6 409.41 46.57 408.95 47.69 408.72 48.95 408.72 50.8 408.72 52.3 409.17 53.44 410.08 54.58 410.99 55.23 412.16 55.4 413.59L53.22 413.59C53.09 412.77 52.64 412.04 51.87 411.4 51.11 410.76 50.07 410.44 48.77 410.44 47.57 410.44 46.56 410.76 45.76 411.4 44.96 412.04 44.56 412.91 44.56 414.02 44.56 414.86 44.78 415.54 45.22 416.05 45.66 416.57 46.21 416.96 46.87 417.22 47.53 417.49 48.42 417.77 49.55 418.08 50.85 418.44 51.9 418.8 52.7 419.15 53.5 419.5 54.18 420.04 54.73 420.77 55.28 421.5 55.56 422.47 55.56 423.69 55.56 424.63 55.31 425.51 54.81 426.36 54.31 427.2 53.58 427.88 52.6 428.39 51.63 428.91 50.46 429.16 49.1 429.16 47.74 429.16 46.62 428.93 45.62 428.47Z" fill="#000F28"/><path d="M82.57 414.8C83.73 415.96 84.3 417.63 84.3 419.83L84.3 429 82.32 429 82.32 420.06C82.32 418.36 81.91 417.06 81.09 416.16 80.27 415.26 79.15 414.81 77.74 414.81 76.33 414.81 75.09 415.3 74.21 416.27 73.33 417.24 72.89 418.66 72.89 420.51L72.89 428.99 70.91 428.99 70.91 420.05C70.91 418.35 70.5 417.05 69.68 416.15 68.86 415.25 67.73 414.8 66.3 414.8 64.87 414.8 63.65 415.29 62.77 416.26 61.89 417.23 61.45 418.65 61.45 420.5L61.45 428.98 59.44 428.98 59.44 413.33 61.45 413.33 61.45 416.02C61.95 415.05 62.65 414.31 63.57 413.8 64.49 413.29 65.51 413.04 66.64 413.04 68 413.04 69.19 413.37 70.21 414.01 71.23 414.66 71.97 415.61 72.43 416.88 72.85 415.64 73.57 414.69 74.59 414.03 75.61 413.37 76.77 413.04 78.07 413.04 79.9 413.04 81.4 413.62 82.56 414.77Z" fill="#000F28"/><path d="M88.79 416.92C89.43 415.71 90.32 414.77 91.46 414.11 92.6 413.45 93.88 413.12 95.31 413.12 96.74 413.12 98.09 413.46 99.16 414.15 100.24 414.84 101.02 415.72 101.5 416.79L101.5 413.35 103.51 413.35 103.51 429 101.5 429 101.5 425.53C101 426.6 100.21 427.48 99.14 428.18 98.06 428.88 96.78 429.23 95.29 429.23 93.8 429.23 92.6 428.9 91.46 428.23 90.32 427.56 89.43 426.62 88.79 425.39 88.15 424.17 87.83 422.75 87.83 421.15 87.83 419.55 88.15 418.14 88.79 416.92ZM100.72 417.85C100.2 416.89 99.5 416.16 98.61 415.64 97.72 415.12 96.74 414.87 95.67 414.87 94.6 414.87 93.57 415.12 92.69 415.62 91.81 416.12 91.12 416.84 90.61 417.78 90.1 418.73 89.85 419.85 89.85 421.15 89.85 422.45 90.1 423.55 90.61 424.52 91.12 425.49 91.81 426.22 92.69 426.73 93.57 427.24 94.56 427.49 95.67 427.49 96.78 427.49 97.72 427.23 98.61 426.72 99.5 426.2 100.2 425.47 100.72 424.51 101.24 423.55 101.49 422.45 101.49 421.19 101.49 419.93 101.23 418.82 100.72 417.87Z" fill="#000F28"/><path d="M112.11 413.87C113.02 413.34 114.13 413.07 115.45 413.07L115.45 415.16 114.91 415.16C113.46 415.16 112.29 415.55 111.41 416.33 110.53 417.11 110.09 418.42 110.09 420.26L110.09 429 108.08 429 108.08 413.35 110.09 413.35 110.09 416.13C110.53 415.16 111.2 414.4 112.11 413.87Z" fill="#000F28"/><path d="M121.07 415.05 121.07 424.77C121.07 425.73 121.25 426.38 121.61 426.75 121.97 427.11 122.61 427.29 123.53 427.29L125.36 427.29 125.36 429.01 123.21 429.01C121.8 429.01 120.75 428.68 120.06 428.02 119.37 427.36 119.03 426.28 119.03 424.77L119.03 415.05 116.85 415.05 116.85 413.36 119.03 413.36 119.03 409.43 121.06 409.43 121.06 413.36 125.36 413.36 125.36 415.05 121.06 415.05Z" fill="#000F28"/><path d="M142.76 421.95 129.78 421.95C129.84 423.14 130.12 424.15 130.64 424.99 131.16 425.83 131.83 426.47 132.67 426.9 133.51 427.33 134.43 427.55 135.42 427.55 136.72 427.55 137.81 427.23 138.7 426.6 139.59 425.97 140.18 425.12 140.46 424.05L142.58 424.05C142.2 425.58 141.38 426.83 140.13 427.79 138.88 428.76 137.31 429.24 135.42 429.24 133.95 429.24 132.63 428.91 131.46 428.25 130.29 427.59 129.38 426.65 128.72 425.44 128.06 424.23 127.73 422.81 127.73 421.18 127.73 419.55 128.05 418.13 128.7 416.91 129.35 415.69 130.26 414.75 131.42 414.1 132.59 413.45 133.91 413.13 135.4 413.13 136.89 413.13 138.19 413.46 139.31 414.1 140.43 414.75 141.29 415.62 141.89 416.72 142.49 417.82 142.79 419.04 142.79 420.37 142.79 421.06 142.77 421.58 142.73 421.95ZM140.08 417.34C139.59 416.52 138.93 415.9 138.09 415.48 137.25 415.06 136.33 414.85 135.34 414.85 133.85 414.85 132.58 415.33 131.53 416.28 130.48 417.24 129.9 418.58 129.78 420.32L140.79 420.32C140.81 419.15 140.58 418.16 140.09 417.34Z" fill="#000F28"/><path d="M150.52 413.87C151.43 413.34 152.54 413.07 153.86 413.07L153.86 415.16 153.32 415.16C151.87 415.16 150.7 415.55 149.82 416.33 148.94 417.11 148.5 418.42 148.5 420.26L148.5 429 146.49 429 146.49 413.35 148.5 413.35 148.5 416.13C148.94 415.16 149.61 414.4 150.52 413.87Z" fill="#000F28"/><path d="M167.32 415.05 167.32 424.77C167.32 425.73 167.5 426.38 167.86 426.75 168.22 427.11 168.86 427.29 169.78 427.29L171.61 427.29 171.61 429.01 169.46 429.01C168.05 429.01 167 428.68 166.31 428.02 165.62 427.36 165.28 426.28 165.28 424.77L165.28 415.05 163.1 415.05 163.1 413.36 165.28 413.36 165.28 409.43 167.31 409.43 167.31 413.36 171.61 413.36 171.61 415.05 167.31 415.05Z" fill="#000F28"/><path d="M189.02 421.95 176.04 421.95C176.1 423.14 176.38 424.15 176.9 424.99 177.42 425.83 178.09 426.47 178.93 426.9 179.77 427.33 180.69 427.55 181.68 427.55 182.98 427.55 184.07 427.23 184.96 426.6 185.85 425.97 186.44 425.12 186.72 424.05L188.84 424.05C188.46 425.58 187.64 426.83 186.39 427.79 185.14 428.76 183.57 429.24 181.68 429.24 180.21 429.24 178.89 428.91 177.72 428.25 176.55 427.59 175.64 426.65 174.98 425.44 174.32 424.23 173.99 422.81 173.99 421.18 173.99 419.55 174.31 418.13 174.96 416.91 175.61 415.69 176.52 414.75 177.68 414.1 178.85 413.45 180.17 413.13 181.66 413.13 183.15 413.13 184.45 413.46 185.57 414.1 186.69 414.75 187.55 415.62 188.15 416.72 188.75 417.82 189.05 419.04 189.05 420.37 189.05 421.06 189.03 421.58 188.99 421.95ZM186.34 417.34C185.85 416.52 185.19 415.9 184.35 415.48 183.51 415.06 182.59 414.85 181.6 414.85 180.11 414.85 178.84 415.33 177.79 416.28 176.74 417.24 176.16 418.58 176.04 420.32L187.05 420.32C187.07 419.15 186.84 418.16 186.35 417.34Z" fill="#000F28"/><path d="M192.8 416.92C193.45 415.71 194.35 414.77 195.49 414.11 196.64 413.45 197.94 413.12 199.42 413.12 201.35 413.12 202.94 413.6 204.19 414.55 205.44 415.51 206.25 416.8 206.61 418.45L204.46 418.45C204.19 417.32 203.61 416.44 202.73 415.8 201.84 415.16 200.74 414.84 199.42 414.84 198.37 414.84 197.42 415.08 196.58 415.56 195.74 416.04 195.08 416.75 194.59 417.7 194.1 418.65 193.86 419.81 193.86 421.18 193.86 422.55 194.1 423.72 194.59 424.68 195.08 425.64 195.74 426.35 196.58 426.83 197.42 427.31 198.37 427.55 199.42 427.55 200.74 427.55 201.84 427.23 202.73 426.59 203.62 425.95 204.2 425.06 204.46 423.91L206.61 423.91C206.25 425.51 205.43 426.81 204.17 427.78 202.91 428.75 201.32 429.24 199.41 429.24 197.94 429.24 196.63 428.91 195.48 428.25 194.33 427.59 193.44 426.65 192.79 425.44 192.14 424.23 191.82 422.81 191.82 421.18 191.82 419.55 192.14 418.14 192.79 416.92Z" fill="#000F28"/><path d="M220.96 413.81C221.91 414.31 222.65 415.07 223.2 416.09 223.74 417.11 224.02 418.36 224.02 419.83L224.02 429 222.04 429 222.04 420.06C222.04 418.36 221.61 417.06 220.76 416.16 219.91 415.26 218.75 414.81 217.28 414.81 215.81 414.81 214.57 415.29 213.67 416.24 212.77 417.2 212.32 418.6 212.32 420.45L212.32 428.99 210.31 428.99 210.31 407.78 212.32 407.78 212.32 416.01C212.82 415.07 213.55 414.35 214.51 413.83 215.47 413.31 216.56 413.06 217.76 413.06 218.96 413.06 220.01 413.31 220.96 413.81Z" fill="#000F28"/><path d="M227.75 428.72C227.47 428.43 227.33 428.08 227.33 427.66 227.33 427.24 227.47 426.89 227.75 426.61 228.03 426.33 228.38 426.19 228.8 426.19 229.22 426.19 229.54 426.33 229.82 426.61 230.1 426.89 230.24 427.24 230.24 427.66 230.24 428.08 230.1 428.43 229.82 428.72 229.54 429.01 229.2 429.15 228.8 429.15 228.4 429.15 228.03 429.01 227.75 428.72Z" fill="#000F28"/><path d="M244.12 428.51C243.12 428.05 242.33 427.41 241.76 426.59 241.19 425.77 240.88 424.85 240.84 423.84L242.96 423.84C243.06 424.81 243.49 425.67 244.25 426.4 245.01 427.14 246.13 427.5 247.6 427.5 248.96 427.5 250.03 427.15 250.82 426.45 251.61 425.75 252.01 424.87 252.01 423.8 252.01 422.94 251.79 422.25 251.35 421.72 250.91 421.19 250.37 420.8 249.72 420.55 249.07 420.29 248.17 420.01 247.03 419.7 245.69 419.34 244.63 418.98 243.85 418.64 243.07 418.3 242.4 417.76 241.84 417.04 241.29 416.31 241.01 415.33 241.01 414.09 241.01 413.06 241.28 412.14 241.81 411.32 242.34 410.51 243.1 409.87 244.07 409.41 245.04 408.95 246.16 408.72 247.42 408.72 249.27 408.72 250.77 409.17 251.91 410.08 253.05 410.99 253.7 412.16 253.87 413.59L251.69 413.59C251.56 412.77 251.11 412.04 250.34 411.4 249.58 410.76 248.54 410.44 247.24 410.44 246.04 410.44 245.03 410.76 244.23 411.4 243.43 412.04 243.03 412.91 243.03 414.02 243.03 414.86 243.25 415.54 243.69 416.05 244.13 416.57 244.68 416.96 245.34 417.22 246 417.49 246.89 417.77 248.02 418.08 249.32 418.44 250.37 418.8 251.17 419.15 251.97 419.5 252.65 420.04 253.2 420.77 253.75 421.5 254.03 422.47 254.03 423.69 254.03 424.63 253.78 425.51 253.28 426.36 252.78 427.2 252.05 427.88 251.07 428.39 250.1 428.91 248.93 429.16 247.57 429.16 246.21 429.16 245.09 428.93 244.09 428.47Z" fill="#000F28"/><path d="M268.56 413.81C269.51 414.31 270.25 415.07 270.8 416.09 271.34 417.11 271.62 418.36 271.62 419.83L271.62 429 269.64 429 269.64 420.06C269.64 418.36 269.21 417.06 268.36 416.16 267.51 415.26 266.35 414.81 264.88 414.81 263.41 414.81 262.17 415.29 261.27 416.24 260.37 417.2 259.92 418.6 259.92 420.45L259.92 428.99 257.91 428.99 257.91 407.78 259.92 407.78 259.92 416.01C260.42 415.07 261.15 414.35 262.11 413.83 263.07 413.31 264.16 413.06 265.36 413.06 266.56 413.06 267.61 413.31 268.56 413.81Z" fill="#000F28"/><path d="M276.1 416.92C276.74 415.71 277.63 414.77 278.77 414.11 279.91 413.45 281.19 413.12 282.62 413.12 284.05 413.12 285.4 413.46 286.47 414.15 287.55 414.84 288.33 415.72 288.81 416.79L288.81 413.35 290.82 413.35 290.82 429 288.81 429 288.81 425.53C288.31 426.6 287.52 427.48 286.45 428.18 285.37 428.88 284.09 429.23 282.6 429.23 281.11 429.23 279.91 428.9 278.77 428.23 277.63 427.56 276.74 426.62 276.1 425.39 275.46 424.17 275.14 422.75 275.14 421.15 275.14 419.55 275.46 418.14 276.1 416.92ZM288.04 417.85C287.52 416.89 286.82 416.16 285.93 415.64 285.04 415.12 284.06 414.87 282.99 414.87 281.92 414.87 280.89 415.12 280.01 415.62 279.13 416.12 278.44 416.84 277.93 417.78 277.42 418.73 277.17 419.85 277.17 421.15 277.17 422.45 277.42 423.55 277.93 424.52 278.44 425.49 279.13 426.22 280.01 426.73 280.89 427.24 281.88 427.49 282.99 427.49 284.1 427.49 285.04 427.23 285.93 426.72 286.82 426.2 287.52 425.47 288.04 424.51 288.56 423.55 288.81 422.45 288.81 421.19 288.81 419.93 288.55 418.82 288.04 417.87Z" fill="#000F28"/><path d="M299.43 413.87C300.34 413.34 301.45 413.07 302.77 413.07L302.77 415.16 302.23 415.16C300.78 415.16 299.61 415.55 298.73 416.33 297.85 417.11 297.41 418.42 297.41 420.26L297.41 429 295.4 429 295.4 413.35 297.41 413.35 297.41 416.13C297.85 415.16 298.52 414.4 299.43 413.87Z" fill="#000F28"/><path d="M310.12 414.17C311.2 413.47 312.48 413.12 313.97 413.12 315.46 413.12 316.66 413.45 317.8 414.11 318.94 414.77 319.82 415.71 320.47 416.92 321.11 418.13 321.43 419.54 321.43 421.15 321.43 422.76 321.11 424.17 320.47 425.39 319.83 426.61 318.94 427.56 317.8 428.23 316.66 428.9 315.39 429.23 313.97 429.23 312.55 429.23 311.22 428.88 310.13 428.18 309.04 427.48 308.25 426.61 307.75 425.56L307.75 436.39 305.77 436.39 305.77 413.35 307.75 413.35 307.75 416.79C308.25 415.74 309.03 414.87 310.11 414.17ZM318.63 417.78C318.12 416.83 317.43 416.11 316.55 415.62 315.67 415.12 314.68 414.87 313.57 414.87 312.46 414.87 311.52 415.13 310.63 415.64 309.74 416.16 309.04 416.89 308.52 417.85 308 418.81 307.75 419.91 307.75 421.17 307.75 422.43 308.01 423.54 308.52 424.49 309.04 425.45 309.74 426.18 310.63 426.7 311.52 427.22 312.5 427.47 313.57 427.47 314.64 427.47 315.67 427.22 316.55 426.71 317.43 426.2 318.12 425.47 318.63 424.5 319.14 423.54 319.39 422.41 319.39 421.13 319.39 419.85 319.14 418.71 318.63 417.76Z" fill="#000F28"/><path d="M339.22 421.95 326.24 421.95C326.3 423.14 326.58 424.15 327.1 424.99 327.62 425.83 328.29 426.47 329.13 426.9 329.97 427.33 330.89 427.55 331.88 427.55 333.18 427.55 334.27 427.23 335.16 426.6 336.05 425.97 336.64 425.12 336.92 424.05L339.04 424.05C338.66 425.58 337.84 426.83 336.59 427.79 335.34 428.76 333.77 429.24 331.88 429.24 330.41 429.24 329.09 428.91 327.92 428.25 326.75 427.59 325.84 426.65 325.18 425.44 324.52 424.23 324.19 422.81 324.19 421.18 324.19 419.55 324.51 418.13 325.16 416.91 325.81 415.69 326.72 414.75 327.88 414.1 329.05 413.45 330.37 413.13 331.86 413.13 333.35 413.13 334.65 413.46 335.77 414.1 336.89 414.75 337.75 415.62 338.35 416.72 338.95 417.82 339.25 419.04 339.25 420.37 339.25 421.06 339.23 421.58 339.19 421.95ZM336.54 417.34C336.05 416.52 335.39 415.9 334.55 415.48 333.71 415.06 332.79 414.85 331.8 414.85 330.31 414.85 329.04 415.33 327.99 416.28 326.94 417.24 326.36 418.58 326.24 420.32L337.25 420.32C337.27 419.15 337.04 418.16 336.55 417.34Z" fill="#000F28"/><path d="M346.97 413.87C347.88 413.34 348.99 413.07 350.31 413.07L350.31 415.16 349.77 415.16C348.32 415.16 347.15 415.55 346.27 416.33 345.39 417.11 344.95 418.42 344.95 420.26L344.95 429 342.94 429 342.94 413.35 344.95 413.35 344.95 416.13C345.39 415.16 346.06 414.4 346.97 413.87Z" fill="#000F28"/><path d="M384.29 414.8C385.45 415.96 386.02 417.63 386.02 419.83L386.02 429 384.04 429 384.04 420.06C384.04 418.36 383.63 417.06 382.81 416.16 381.99 415.26 380.87 414.81 379.46 414.81 378.05 414.81 376.81 415.3 375.93 416.27 375.05 417.24 374.61 418.66 374.61 420.51L374.61 428.99 372.63 428.99 372.63 420.05C372.63 418.35 372.22 417.05 371.4 416.15 370.58 415.25 369.45 414.8 368.02 414.8 366.59 414.8 365.37 415.29 364.49 416.26 363.61 417.23 363.17 418.65 363.17 420.5L363.17 428.98 361.16 428.98 361.16 413.33 363.17 413.33 363.17 416.02C363.67 415.05 364.37 414.31 365.29 413.8 366.21 413.29 367.23 413.04 368.36 413.04 369.72 413.04 370.91 413.37 371.93 414.01 372.95 414.66 373.69 415.61 374.15 416.88 374.57 415.64 375.29 414.69 376.31 414.03 377.33 413.37 378.49 413.04 379.79 413.04 381.62 413.04 383.12 413.62 384.28 414.77Z" fill="#000F28"/><path d="M390.43 409.97C390.14 409.68 390 409.33 390 408.91 390 408.49 390.14 408.14 390.43 407.86 390.72 407.58 391.06 407.44 391.46 407.44 391.86 407.44 392.21 407.58 392.49 407.86 392.78 408.14 392.92 408.49 392.92 408.91 392.92 409.33 392.78 409.68 392.49 409.97 392.2 410.26 391.86 410.4 391.46 410.4 391.06 410.4 390.71 410.26 390.43 409.97ZM392.47 413.35 392.47 429 390.46 429 390.46 413.35 392.47 413.35Z" fill="#000F28"/><path d="M408.95 414.8C410.13 415.96 410.73 417.63 410.73 419.83L410.73 429 408.75 429 408.75 420.06C408.75 418.36 408.32 417.06 407.47 416.16 406.62 415.26 405.46 414.81 403.99 414.81 402.52 414.81 401.28 415.29 400.38 416.24 399.48 417.2 399.03 418.6 399.03 420.45L399.03 428.99 397.02 428.99 397.02 413.34 399.03 413.34 399.03 416.01C399.53 415.05 400.24 414.32 401.18 413.82 402.12 413.31 403.18 413.06 404.36 413.06 406.23 413.06 407.76 413.64 408.95 414.79Z" fill="#000F28"/><path d="M415.22 416.92C415.87 415.71 416.76 414.77 417.9 414.11 419.04 413.45 420.32 413.12 421.75 413.12 423.18 413.12 424.37 413.45 425.48 414.12 426.59 414.79 427.4 415.66 427.92 416.73L427.92 407.79 429.93 407.79 429.93 429 427.92 429 427.92 425.5C427.44 426.59 426.66 427.48 425.57 428.18 424.48 428.88 423.2 429.23 421.73 429.23 420.26 429.23 419.01 428.9 417.88 428.23 416.74 427.56 415.85 426.62 415.21 425.39 414.57 424.17 414.25 422.75 414.25 421.15 414.25 419.55 414.57 418.14 415.22 416.92ZM427.15 417.85C426.63 416.89 425.93 416.16 425.04 415.64 424.15 415.12 423.17 414.87 422.1 414.87 421.03 414.87 420 415.12 419.12 415.62 418.24 416.12 417.55 416.84 417.04 417.78 416.53 418.73 416.28 419.85 416.28 421.15 416.28 422.45 416.53 423.55 417.04 424.52 417.55 425.49 418.24 426.22 419.12 426.73 420 427.24 420.99 427.49 422.1 427.49 423.21 427.49 424.15 427.23 425.04 426.72 425.93 426.2 426.63 425.47 427.15 424.51 427.67 423.55 427.92 422.45 427.92 421.19 427.92 419.93 427.66 418.82 427.15 417.87Z" fill="#000F28"/><path d="M435.5 427.98C434.36 427.15 433.73 426.02 433.59 424.58L435.65 424.58C435.75 425.46 436.16 426.17 436.9 426.72 437.64 427.26 438.62 427.54 439.87 427.54 440.96 427.54 441.81 427.28 442.43 426.77 443.05 426.25 443.36 425.61 443.36 424.85 443.36 424.32 443.19 423.88 442.84 423.53 442.5 423.19 442.06 422.91 441.54 422.71 441.01 422.51 440.3 422.29 439.4 422.06 438.23 421.75 437.29 421.45 436.56 421.14 435.83 420.83 435.22 420.38 434.71 419.78 434.2 419.18 433.95 418.37 433.95 417.36 433.95 416.6 434.18 415.89 434.64 415.24 435.1 414.59 435.75 414.07 436.59 413.69 437.43 413.31 438.39 413.12 439.46 413.12 441.14 413.12 442.5 413.55 443.53 414.4 444.56 415.25 445.12 416.42 445.19 417.91L443.18 417.91C443.12 416.99 442.76 416.25 442.11 415.69 441.46 415.13 440.55 414.84 439.4 414.84 438.39 414.84 437.57 415.08 436.94 415.56 436.31 416.04 435.99 416.63 435.99 417.34 435.99 417.95 436.18 418.45 436.55 418.84 436.92 419.23 437.39 419.54 437.94 419.76 438.49 419.98 439.24 420.22 440.18 420.49 441.31 420.8 442.2 421.09 442.87 421.38 443.54 421.67 444.11 422.09 444.59 422.64 445.07 423.19 445.32 423.93 445.34 424.85 445.34 425.69 445.11 426.44 444.65 427.1 444.19 427.76 443.55 428.28 442.73 428.66 441.91 429.04 440.96 429.23 439.89 429.23 438.09 429.23 436.63 428.81 435.49 427.98Z" fill="#000F28"/><path d="M448.43 428.72C448.15 428.43 448.01 428.08 448.01 427.66 448.01 427.24 448.15 426.89 448.43 426.61 448.71 426.33 449.06 426.19 449.48 426.19 449.9 426.19 450.22 426.33 450.5 426.61 450.78 426.89 450.92 427.24 450.92 427.66 450.92 428.08 450.78 428.43 450.5 428.72 450.22 429.01 449.88 429.15 449.48 429.15 449.08 429.15 448.71 429.01 448.43 428.72Z" fill="#000F28"/></g><g><path d="M65.59 361.14C48.2 361.14 33.55 347.78 33.55 328.94 33.55 310.1 48.2 296.74 65.59 296.74 73 296.74 77.99 299.15 81.85 303.5L81.85 293.36C85.55 295.29 97.95 300.77 106 300.77 106 301.9 104.55 303.35 97.95 304.79L97.95 353.1C104.55 354.55 106 356 106 357.12 97.95 357.12 85.55 362.6 81.85 364.53L81.85 354.39C77.99 358.74 72.99 361.15 65.59 361.15ZM81.85 313.64C81.85 307.52 75.73 301.08 68 301.08 56.41 301.08 49.64 313.64 49.64 328.94 49.64 344.24 56.4 356.8 68 356.8 75.73 356.8 81.85 350.36 81.85 344.24L81.85 313.65Z" fill="#000F28"/><path d="M122.1 357.11C122.1 355.98 123.55 354.53 130.15 353.09L130.15 304.78C123.55 303.33 122.1 301.88 122.1 300.76 130.15 300.76 142.55 295.28 146.25 293.35L146.25 364.52C142.55 362.59 130.15 357.11 122.1 357.11Z" fill="#000F28"/><path d="M196 296.73C213.39 296.73 219.03 303.65 222.57 303.65 224.02 303.65 225.15 302.52 226.6 299.3L226.6 320.88C226.6 310.41 215.81 302.04 202.29 302.04 188.77 302.04 178.3 313.96 178.3 328.93 178.3 343.9 188.61 355.82 202.29 355.82 215.97 355.82 226.6 347.45 226.6 336.98L226.6 358.56C225.15 355.34 224.02 354.21 222.57 354.21 219.03 354.21 213.39 361.13 196 361.13 177.32 361.13 162.19 347.12 162.19 328.93 162.19 310.74 177.33 296.73 196 296.73Z" fill="#000F28"/><path d="M258.63 330.87C259.6 344.56 270.22 354.38 282.78 354.38 297.92 354.38 306.93 345.2 306.93 336.99 306.93 350.68 293.73 361.14 276.01 361.14 257.01 361.14 242.52 344.88 242.52 328.94 242.52 313 257.01 296.74 276.01 296.74 293.72 296.74 306.93 307.21 306.93 320.89 306.93 312.68 297.91 303.5 282.78 303.5 270.22 303.5 259.59 313.32 258.63 327.01L290.83 327.01 290.83 330.88 258.63 330.88Z" fill="#000F28"/><path d="M322.87 300.76C330.92 300.76 343.32 295.28 347.02 293.35L347.02 300.92C349.27 299.47 353.78 296.73 359.9 296.73 366.02 296.73 371.17 301.4 371.17 307.52 371.17 311.87 367.47 315.57 363.12 315.57 358.77 315.57 355.07 311.87 355.07 307.52 355.07 304.78 353.94 303.49 352.17 303.49 350.72 303.49 349.11 304.13 347.02 305.74L347.02 352.11C349.11 353.72 350.72 354.36 352.17 354.36 353.94 354.36 355.07 353.07 355.07 350.33 355.07 345.98 358.77 342.28 363.12 342.28 367.47 342.28 371.17 345.98 371.17 350.33 371.17 356.45 366.18 361.12 359.9 361.12 353.62 361.12 349.27 358.38 347.02 356.93L347.02 364.5C343.32 362.57 330.92 357.09 322.87 357.09 322.87 355.96 324.32 354.51 330.92 353.07L330.92 304.76C324.32 303.31 322.87 301.86 322.87 300.74Z" fill="#000F28"/><path d="M419.32 361.14C401.93 361.14 387.28 347.78 387.28 328.94 387.28 310.1 401.93 296.74 419.32 296.74 426.73 296.74 431.72 299.15 435.58 303.5L435.58 293.36C439.28 295.29 451.68 300.77 459.73 300.77 459.73 301.9 458.28 303.35 451.68 304.79L451.68 353.1C458.28 354.55 459.73 356 459.73 357.12 451.68 357.12 439.28 362.6 435.58 364.53L435.58 354.39C431.72 358.74 426.72 361.15 419.32 361.15ZM435.58 313.64C435.58 307.52 429.46 301.08 421.73 301.08 410.14 301.08 403.37 313.64 403.37 328.94 403.37 344.24 410.13 356.8 421.73 356.8 429.46 356.8 435.58 350.36 435.58 344.24L435.58 313.65Z" fill="#000F28"/></g><path d="M138.2 377.24C142.55 377.24 146.25 380.94 146.25 385.29 146.25 389.64 142.55 393.34 138.2 393.34 133.85 393.34 130.15 389.64 130.15 385.29 130.15 380.94 133.85 377.24 138.2 377.24Z" fill="url(#linear-gradient103)"/></svg>